HIERARCHY
ROOT reference
{
  OFFSET 0 0 0
  CHANNELS 6 Xposition Yposition Zposition Zrotation Xrotation Yrotation
  JOINT Hips
  {
    OFFSET 12.79 91.8375 163.408
    CHANNELS 6 Xposition Yposition Zposition Zrotation Xrotation Yrotation
    JOINT Spine
    {
      OFFSET 0 7.81434 0
      CHANNELS 6 Xposition Yposition Zposition Zrotation Xrotation Yrotation
      JOINT Spine1
      {
        OFFSET 0 23.3781 0
        CHANNELS 6 Xposition Yposition Zposition Zrotation Xrotation Yrotation
        JOINT Neck
        {
          OFFSET 0 23.2821 2.11656
          CHANNELS 6 Xposition Yposition Zposition Zrotation Xrotation Yrotation
          JOINT Head
          {
            OFFSET 0 13.3416 -1.90594
            CHANNELS 6 Xposition Yposition Zposition Zrotation Xrotation Yrotation
            End Site
            {
              OFFSET 0 23.8242 0
            }
          }
        }
        JOINT LeftShoulder
        {
          OFFSET 3.82472 21.4916 -0.175476
          CHANNELS 6 Xposition Yposition Zposition Zrotation Xrotation Yrotation
          JOINT LeftArm
          {
            OFFSET 10.8239 0 0
            CHANNELS 6 Xposition Yposition Zposition Zrotation Xrotation Yrotation
            JOINT LeftForeArm
            {
              OFFSET 28.5356 0 0
              CHANNELS 6 Xposition Yposition Zposition Zrotation Xrotation Yrotation
              JOINT LeftHand
              {
                OFFSET 24.5315 0 0
                CHANNELS 6 Xposition Yposition Zposition Zrotation Xrotation Yrotation
                End Site
                {
                  OFFSET 14.2945 0 0
                }
              }
            }
          }
        }
        JOINT RightShoulder
        {
          OFFSET -3.77033 21.4916 -0.175476
          CHANNELS 6 Xposition Yposition Zposition Zrotation Xrotation Yrotation
          JOINT RightArm
          {
            OFFSET -10.8239 0 0
            CHANNELS 6 Xposition Yposition Zposition Zrotation Xrotation Yrotation
            JOINT RightForeArm
            {
              OFFSET -28.5356 0 0
              CHANNELS 6 Xposition Yposition Zposition Zrotation Xrotation Yrotation
              JOINT RightHand
              {
                OFFSET -24.5315 0 0
                CHANNELS 6 Xposition Yposition Zposition Zrotation Xrotation Yrotation
                End Site
                {
                  OFFSET -14.2945 0 0
                }
              }
            }
          }
        }
      }
    }
    JOINT LeftUpLeg
    {
      OFFSET 9.52968 0 0
      CHANNELS 6 Xposition Yposition Zposition Zrotation Xrotation Yrotation
      JOINT LeftLeg
      {
        OFFSET 0 -40.1884 0
        CHANNELS 6 Xposition Yposition Zposition Zrotation Xrotation Yrotation
        JOINT LeftFoot
        {
          OFFSET 0 -39.9954 0
          CHANNELS 6 Xposition Yposition Zposition Zrotation Xrotation Yrotation
          JOINT LeftToeBase
          {
            OFFSET 0 -6.19429 14.2945
            CHANNELS 6 Xposition Yposition Zposition Zrotation Xrotation Yrotation
            End Site
            {
              OFFSET 0 0 3.81187
            }
          }
        }
      }
    }
    JOINT RightUpLeg
    {
      OFFSET -9.52968 0 0
      CHANNELS 6 Xposition Yposition Zposition Zrotation Xrotation Yrotation
      JOINT RightLeg
      {
        OFFSET 0 -40.1884 0
        CHANNELS 6 Xposition Yposition Zposition Zrotation Xrotation Yrotation
        JOINT RightFoot
        {
          OFFSET 0 -39.9954 0
          CHANNELS 6 Xposition Yposition Zposition Zrotation Xrotation Yrotation
          JOINT RightToeBase
          {
            OFFSET 0 -6.19429 14.2945
            CHANNELS 6 Xposition Yposition Zposition Zrotation Xrotation Yrotation
            End Site
            {
              OFFSET 0 0 3.81187
            }
          }
        }
      }
    }
  }
}
MOTION
Frames:	11
Frame Time:	0.004
0 0 0 0 0 -0 -5.47106 84.232 -71.8696 8.1191 1.13236 -5.72572 -1.77636e-015 7.81434 0 -4.24581 -6.55236 2.41725 -8.88178e-016 23.3781 7.10543e-015 -13.3001 6.70433 3.44309 0 23.2821 2.11656 1.58296 29.795 2.71578 0 13.3416 -1.90594 -3.12687 12.8168 2.94296 3.82472 21.4916 -0.175476 -12.9067 26.6458 2.46742 10.8239 1.42109e-014 -1.42109e-014 -25.4865 33.8416 -35.1478 28.5356 3.55271e-015 0 0.142967 -9.35151 -16.5608 24.5315 7.10543e-015 0 2.16327 -9.33037 0.020777 -3.77033 21.4916 -0.175476 11.5387 32.9858 10.8111 -10.8239 0 0 28.9015 34.5975 37.4264 -28.5356 -7.10543e-015 1.42109e-014 -1.08721 -7.15443 21.2684 -24.5315 -7.10543e-015 0 4.86485 -6.8056 3.46489 9.52968 -1.42109e-014 0 -8.39601 -5.16393 2.1142 -8.88178e-016 -40.1884 0 -5.87524 -6.8779 2.15845 0 -39.9954 0 5.12887 1.05778 2.12827 -4.44089e-016 -6.19429 14.2945 2.73329e-016 1.59028e-015 -0 -9.52968 0 0 -10.5942 0.178664 -5.66228 0 -40.1884 0 -15.022 50.0185 3.18462 0 -39.9954 0 7.7495 4.60367 10.9664 0 -6.19429 14.2945 -0 0 1.59028e-015 
0 0 0 0 0 -0 -5.38345 84.2798 -71.4454 8.14975 1.03257 -5.66498 -1.77636e-015 7.81434 -1.42109e-014 -4.29164 -6.55403 2.38429 0 23.3781 0 -13.2151 6.92097 3.43295 0 23.2821 2.11656 1.57017 29.7329 2.73589 3.55271e-015 13.3416 -1.90594 -3.2078 12.8435 2.95949 3.82472 21.4916 -0.175476 -12.8956 26.6699 2.39614 10.8239 0 0 -25.5541 33.2402 -35.1158 28.5356 0 0 -0.376094 -9.2191 -16.7113 24.5315 -3.55271e-015 -1.42109e-014 2.62837 -9.27234 0.046 -3.77033 21.4916 -0.175476 11.532 33.1272 10.7803 -10.8239 0 0 28.8156 34.5969 37.4878 -28.5356 -7.10543e-015 -1.42109e-014 -1.02737 -6.95917 21.2547 -24.5315 0 0 5.65177 -6.59592 3.50292 9.52968 0 0 -8.53195 -4.74227 1.94603 4.44089e-016 -40.1884 0 -5.84183 -6.95302 2.32042 0 -39.9954 7.10543e-015 5.00782 0.894555 2.09783 0 -6.19429 14.2945 -2.98177e-016 0 -0 -9.52968 1.42109e-014 -1.42109e-014 -10.5964 -0.357661 -5.70221 0 -40.1884 1.42109e-014 -15.3612 50.7475 3.14077 0 -39.9954 0 7.50867 4.09269 11.0637 7.10543e-015 -6.19429 14.2945 1.59028e-015 -9.54166e-015 -0 
0 0 0 0 0 -0 -5.30373 84.3214 -71.0227 8.15282 0.919582 -5.61613 0 7.81434 0 -4.35058 -6.50107 2.3229 8.88178e-016 23.3781 0 -13.0712 7.05522 3.37957 0 23.2821 2.11656 1.46643 29.7044 2.75562 0 13.3416 -1.90594 -3.22111 12.8955 2.96692 3.82472 21.4916 -0.175476 -12.9557 26.6404 2.4389 10.8239 0 0 -25.4267 33.3266 -35.2298 28.5356 1.42109e-014 0 -0.295057 -9.40898 -16.7054 24.5315 3.55271e-015 0 2.38744 -9.45379 -0.112698 -3.77033 21.4916 -0.175476 11.5263 33.071 10.8655 -10.8239 -2.84217e-014 2.84217e-014 28.9132 34.7147 37.2603 -28.5356 7.10543e-015 -1.42109e-014 -0.912044 -6.73854 21.3046 -24.5315 -7.10543e-015 0 6.12619 -6.38559 3.43119 9.52968 -1.42109e-014 0 -8.64003 -4.29646 1.81674 8.88178e-016 -40.1884 0 -5.8009 -7.0486 2.46945 8.88178e-016 -39.9954 -7.10543e-015 4.99404 0.704257 2.03406 0 -6.19429 14.2945 -2.48481e-016 3.18055e-015 -0 -9.52968 0 0 -10.5708 -0.870055 -5.68677 -7.10543e-015 -40.1884 0 -15.6285 51.4441 3.22029 -7.10543e-015 -39.9954 0 7.2976 3.54921 11.0063 0 -6.19429 14.2945 7.95139e-016 3.18055e-015 -0 
0 0 0 0 0 -0 -5.22047 84.367 -70.6034 8.16167 0.847783 -5.54124 0 7.81434 1.42109e-014 -4.31957 -6.54789 2.3078 -8.88178e-016 23.3781 0 -13.0732 7.31794 3.39478 -3.55271e-015 23.2821 2.11656 1.50136 29.6504 2.73222 0 13.3416 -1.90594 -3.28378 12.8602 2.94342 3.82472 21.4916 -0.175476 -12.8662 26.6236 2.34224 10.8239 0 0 -25.3434 33.2957 -35.334 28.5356 -7.10543e-015 0 -0.270877 -9.60451 -16.7462 24.5315 0 0 2.12825 -9.64822 -0.253565 -3.77033 21.4916 -0.175476 11.6124 33.1544 10.7666 -10.8239 1.42109e-014 0 28.8615 34.7295 37.2798 -28.5356 -7.10543e-015 0 -0.954706 -6.47398 21.2783 -24.5315 7.10543e-015 0 6.94557 -6.08256 3.53158 9.52968 0 0 -8.7547 -3.89266 1.60683 4.44089e-016 -40.1884 1.42109e-014 -5.75227 -7.15061 2.67142 0 -39.9954 7.10543e-015 4.90724 0.579079 1.99336 0 -6.19429 14.2945 -5.46658e-016 1.59028e-015 -1.98785e-016 -9.52968 1.42109e-014 1.42109e-014 -10.5435 -1.40833 -5.75973 0 -40.1884 0 -15.974 52.0946 3.51417 0 -39.9954 0 7.18253 3.05518 10.7631 0 -6.19429 14.2945 1.59028e-015 0 -0 
0 0 0 0 0 -0 -5.15577 84.4259 -70.1086 8.06068 0.640315 -5.26911 8.88178e-016 7.81434 0 -4.24449 -6.55845 2.15813 0 23.3781 0 -13.0448 7.696 3.28277 -3.55271e-015 23.2821 2.11656 1.56486 29.619 2.71771 0 13.3416 -1.90594 -3.40095 12.8364 2.93187 3.82472 21.4916 -0.175476 -12.8346 26.5737 2.37413 10.8239 0 -1.42109e-014 -25.4914 32.8442 -35.5063 28.5356 7.10543e-015 0 -0.491534 -9.49602 -16.4042 24.5315 0 7.10543e-015 2.25926 -9.57566 -0.515105 -3.77033 21.4916 -0.175476 11.7295 33.0553 10.8146 -10.8239 0 0 28.8623 34.9354 37.0785 -28.5356 0 0 -0.881498 -6.34127 21.28 -24.5315 0 -7.10543e-015 7.38267 -5.94474 3.61277 9.52968 -1.42109e-014 -1.42109e-014 -8.76553 -3.2654 1.29615 -4.44089e-016 -40.1884 1.42109e-014 -5.73505 -7.27361 2.76602 -4.44089e-016 -39.9954 -7.10543e-015 4.81865 0.434869 1.97241 0 -6.19429 14.2945 1.2424e-016 0 -0 -9.52968 -1.42109e-014 0 -10.4088 -1.63285 -6.05655 0 -40.1884 1.42109e-014 -16.3167 52.5317 3.77071 7.10543e-015 -39.9954 0 6.96782 2.65477 10.5925 0 -6.19429 14.2945 7.95139e-016 -6.36111e-015 -0 
0 0 0 0 0 -0 -5.08061 84.4696 -69.6895 8.04765 0.548866 -5.19627 8.88178e-016 7.81434 -1.42109e-014 -4.31958 -6.53641 2.09301 8.88178e-016 23.3781 -1.42109e-014 -12.7938 7.84623 3.221 0 23.2821 2.11656 1.34539 29.6363 2.78202 0 13.3416 -1.90594 -3.3587 12.7923 2.9702 3.82472 21.4916 -0.175476 -12.9583 26.5613 2.39269 10.8239 1.42109e-014 0 -25.4637 32.7266 -35.5592 28.5356 -7.10543e-015 0 -0.650959 -9.68516 -16.4774 24.5315 0 7.10543e-015 2.80791 -9.78562 -0.323774 -3.77033 21.4916 -0.175476 11.6288 33.1971 10.7944 -10.8239 0 -2.84217e-014 28.831 34.9497 37.1047 -28.5356 -1.42109e-014 0 -0.83648 -6.18875 21.2684 -24.5315 0 0 7.75199 -5.78484 3.67364 9.52968 0 -1.42109e-014 -8.86187 -2.87886 1.13082 0 -40.1884 0 -5.66461 -7.29551 2.9864 1.33227e-015 -39.9954 0 4.75644 0.242871 1.84153 0 -6.19429 14.2945 2.98177e-016 1.59028e-015 1.98785e-016 -9.52968 1.42109e-014 0 -10.3618 -2.15696 -6.10899 0 -40.1884 0 -16.6152 53.1317 3.97955 0 -39.9954 0 6.65104 2.20476 10.5789 -7.10543e-015 -6.19429 14.2945 -7.95139e-016 -6.36111e-015 7.95139e-016 
0 0 0 0 0 -0 -5.00803 84.5131 -69.2639 8.0127 0.451079 -5.11275 8.88178e-016 7.81434 1.42109e-014 -4.32876 -6.54003 2.02519 0 23.3781 -7.10543e-015 -12.6676 8.04091 3.16675 3.55271e-015 23.2821 2.11656 1.30984 29.6387 2.77208 0 13.3416 -1.90594 -3.43088 12.778 2.95249 3.82472 21.4916 -0.175476 -12.949 26.5546 2.38986 10.8239 -2.84217e-014 0 -25.4092 32.766 -35.5446 28.5356 7.10543e-015 0 -0.489121 -9.82712 -16.7398 24.5315 0 -7.10543e-015 2.28387 -9.90434 -0.33447 -3.77033 21.4916 -0.175476 11.6321 33.1696 10.8466 -10.8239 2.84217e-014 0 28.9258 35.0115 36.9201 -28.5356 7.10543e-015 0 -0.737011 -5.9686 21.3203 -24.5315 -7.10543e-015 0 7.84701 -5.58639 3.57605 9.52968 1.42109e-014 1.42109e-014 -8.90817 -2.45942 0.976173 -8.88178e-016 -40.1884 0 -5.65695 -7.34737 3.1175 8.88178e-016 -39.9954 1.42109e-014 4.74433 0.082265 1.775 0 -6.19429 14.2945 3.23025e-016 0 -1.98785e-016 -9.52968 -1.42109e-014 1.42109e-014 -10.2719 -2.65375 -6.16697 0 -40.1884 0 -16.904 53.6492 4.05857 0 -39.9954 0 6.48598 1.77737 10.4917 0 -6.19429 14.2945 -7.95139e-016 -1.59028e-014 -0 
0 0 0 0 0 -0 -4.93776 84.5573 -68.8431 7.99019 0.396121 -5.01544 8.88178e-016 7.81434 0 -4.34446 -6.61296 1.96618 8.88178e-016 23.3781 7.10543e-015 -12.5509 8.28147 3.12971 0 23.2821 2.11656 1.38024 29.7048 2.71438 0 13.3416 -1.90594 -3.64821 12.6254 2.8908 3.82472 21.4916 -0.175476 -12.8897 26.5433 2.31555 10.8239 -2.84217e-014 1.42109e-014 -25.5861 32.4845 -35.5211 28.5356 0 0 -0.697328 -9.96393 -16.8291 24.5315 -7.10543e-015 0 2.96323 -10.0745 -0.361426 -3.77033 21.4916 -0.175476 11.6013 33.2908 10.8126 -10.8239 0 0 28.8834 35.0096 36.9617 -28.5356 0 1.42109e-014 -0.639743 -5.78584 21.3411 -24.5315 -7.10543e-015 0 8.02946 -5.41902 3.53202 9.52968 -1.42109e-014 1.42109e-014 -8.97655 -2.03884 0.527908 8.88178e-016 -40.1884 0 -5.58978 -7.52526 3.5212 8.88178e-016 -39.9954 -7.10543e-015 4.66145 -0.023117 1.77263 -2.22045e-016 -6.19429 14.2945 -2.73329e-016 1.59028e-015 3.97569e-016 -9.52968 -1.42109e-014 0 -10.1915 -3.19993 -6.26023 0 -40.1884 -1.42109e-014 -17.2094 54.1508 4.25765 0 -39.9954 0 6.45075 1.31111 10.0225 0 -6.19429 14.2945 1.59028e-015 3.18055e-015 -1.59028e-015 
0 0 0 0 0 -0 -4.87001 84.5957 -68.4257 7.95128 0.329354 -4.89887 -1.77636e-015 7.81434 -1.42109e-014 -4.36899 -6.63634 1.89035 -8.88178e-016 23.3781 0 -12.3663 8.49067 3.06545 0 23.2821 2.11656 1.26503 29.6672 2.71655 0 13.3416 -1.90594 -3.64248 12.6512 2.87834 3.82472 21.4916 -0.175476 -12.9127 26.4777 2.27978 10.8239 -2.84217e-014 0 -25.5424 32.6453 -35.5522 28.5356 7.10543e-015 0 -0.530087 -10.2597 -16.9578 24.5315 -7.10543e-015 0 2.90013 -10.3458 -0.348234 -3.77033 21.4916 -0.175476 11.5921 33.3191 10.7519 -10.8239 0 0 28.8743 35.1122 36.9492 -28.5356 7.10543e-015 0 -0.607952 -5.71279 21.3116 -24.5315 7.10543e-015 0 8.19187 -5.35067 3.48094 9.52968 0 0 -9.02258 -1.66474 0.373521 -8.88178e-016 -40.1884 0 -5.57153 -7.55754 3.61688 -8.88178e-016 -39.9954 0 4.51649 -0.166199 1.81054 0 -6.19429 14.2945 4.47266e-016 1.59028e-015 1.98785e-016 -9.52968 -1.42109e-014 0 -10.0917 -3.72253 -6.39479 0 -40.1884 1.42109e-014 -17.5687 54.6025 4.52461 -7.10543e-015 -39.9954 -1.42109e-014 6.4511 0.935118 9.8284 -7.10543e-015 -6.19429 14.2945 -7.95139e-016 -3.18055e-015 1.59028e-015 
0 0 0 0 0 -0 -4.79909 84.6376 -67.9996 7.9066 0.243156 -4.79741 8.88178e-016 7.81434 0 -4.36935 -6.64873 1.81983 -8.88178e-016 23.3781 -7.10543e-015 -12.2359 8.66514 3.00446 3.55271e-015 23.2821 2.11656 1.24994 29.6839 2.70698 0 13.3416 -1.90594 -3.71401 12.6448 2.86408 3.82472 21.4916 -0.175476 -12.9116 26.5689 2.31485 10.8239 1.42109e-014 -1.42109e-014 -25.3647 32.822 -35.7393 28.5356 7.10543e-015 0 -0.336208 -10.615 -17.1296 24.5315 7.10543e-015 -7.10543e-015 2.98158 -10.6688 -0.166787 -3.77033 21.4916 -0.175476 11.5831 33.3978 10.7482 -10.8239 0 0 28.8807 35.1644 36.8778 -28.5356 -7.10543e-015 0 -0.525265 -5.56464 21.3456 -24.5315 0 7.10543e-015 8.31142 -5.21359 3.48853 9.52968 -1.42109e-014 0 -9.15687 -1.26616 0.592044 -4.44089e-016 -40.1884 1.42109e-014 -5.41524 -7.58912 3.68272 4.44089e-016 -39.9954 7.10543e-015 4.41152 -0.311077 1.42677 0 -6.19429 14.2945 4.96962e-017 0 -0 -9.52968 1.42109e-014 0 -9.99341 -4.21815 -6.49146 0 -40.1884 7.10543e-015 -17.8464 55.0339 4.76805 0 -39.9954 0 6.31967 0.565154 9.63074 -7.10543e-015 -6.19429 14.2945 0 0 -7.95139e-016 
0 0 0 0 0 -0 -4.73312 84.6742 -67.5834 7.84852 0.151086 -4.66499 -8.88178e-016 7.81434 -1.42109e-014 -4.26164 -6.63589 1.73143 1.33227e-015 23.3781 0 -12.4074 8.81286 2.93862 0 23.2821 2.11656 1.54385 29.7816 2.68022 0 13.3416 -1.90594 -3.86661 12.5571 2.86107 3.82472 21.4916 -0.175476 -12.6985 26.5793 2.31696 10.8239 1.42109e-014 -1.42109e-014 -25.4491 32.6491 -35.905 28.5356 0 0 -0.436758 -10.83 -16.983 24.5315 0 7.10543e-015 3.0383 -10.902 -0.316006 -3.77033 21.4916 -0.175476 11.9044 33.2834 10.7926 -10.8239 -2.84217e-014 0 28.8933 35.4034 36.5523 -28.5356 0 0 -0.479334 -5.53512 21.3868 -24.5315 7.10543e-015 1.42109e-014 8.40808 -5.18697 3.52368 9.52968 -1.42109e-014 0 -9.20134 -0.837868 0.375603 0 -40.1884 -1.42109e-014 -5.35469 -7.68755 3.88836 8.88178e-016 -39.9954 0 4.64229 -0.39131 1.17802 -2.22045e-016 -6.19429 14.2945 2.23633e-016 3.18055e-015 -0 -9.52968 -1.42109e-014 0 -9.88652 -4.69056 -6.60952 0 -40.1884 0 -18.0792 55.4222 4.89229 7.10543e-015 -39.9954 0 6.08351 0.214966 9.68984 0 -6.19429 14.2945 2.38542e-015 -3.18055e-015 -0 
